<!DOCTYPE svg PUBLIC "-//W3C//DTD SVG 1.1//EN" "http://www.w3.org/Graphics/SVG/1.1/DTD/svg11.dtd">
<!-- Uploaded to: SVG Repo, www.svgrepo.com, Transformed by: SVG Repo Mixer Tools -->
<svg fill="#ffffff" width="800px" height="800px" viewBox="0 0 96 96" xmlns="http://www.w3.org/2000/svg" stroke="#ffffff">
<g id="SVGRepo_bgCarrier" stroke-width="0"/>
<g id="SVGRepo_tracerCarrier" stroke-linecap="round" stroke-linejoin="round"/>
<g id="SVGRepo_iconCarrier">
<title/>
<path d="M48,0A48,48,0,1,0,96,48,48.0474,48.0474,0,0,0,48,0ZM77.2808,68.7964,62.4844,54H83.3936A35.6755,35.6755,0,0,1,77.2808,68.7964ZM83.3936,42H54V12.6064A35.9331,35.9331,0,0,1,83.3936,42ZM12,48A35.9772,35.9772,0,0,1,42,12.6064V48A5.9792,5.9792,0,0,0,43.7651,52.25L68.7964,77.2808A35.8885,35.8885,0,0,1,12,48Z"/>
</g>
</svg>